<mxfile host="app.diagrams.net" agent="Mozilla/5.0 (Windows NT 10.0; Win64; x64) AppleWebKit/537.36 (KHTML, like Gecko) Chrome/139.0.0.0 Safari/537.36" version="28.1.1">
  <diagram name="Trang-1" id="57OtDuVGGtOO1k8ljJCp">
    <mxGraphModel dx="1068" dy="446" grid="1" gridSize="10" guides="1" tooltips="1" connect="1" arrows="1" fold="1" page="1" pageScale="1" pageWidth="827" pageHeight="1169" math="0" shadow="0">
      <root>
        <mxCell id="C4vQ7SFBK7eT4EbtGo5W-0" />
        <mxCell id="C4vQ7SFBK7eT4EbtGo5W-1" parent="C4vQ7SFBK7eT4EbtGo5W-0" />
        <mxCell id="qR8YceTMyiyLwritScN6-1" style="edgeStyle=orthogonalEdgeStyle;rounded=0;orthogonalLoop=1;jettySize=auto;html=1;" edge="1" parent="C4vQ7SFBK7eT4EbtGo5W-1" source="qR8YceTMyiyLwritScN6-0" target="qR8YceTMyiyLwritScN6-2">
          <mxGeometry relative="1" as="geometry">
            <mxPoint x="350" y="200" as="targetPoint" />
          </mxGeometry>
        </mxCell>
        <mxCell id="qR8YceTMyiyLwritScN6-0" value="" style="ellipse;whiteSpace=wrap;html=1;" vertex="1" parent="C4vQ7SFBK7eT4EbtGo5W-1">
          <mxGeometry x="290" y="30" width="120" height="80" as="geometry" />
        </mxCell>
        <mxCell id="qR8YceTMyiyLwritScN6-4" style="edgeStyle=orthogonalEdgeStyle;rounded=0;orthogonalLoop=1;jettySize=auto;html=1;" edge="1" parent="C4vQ7SFBK7eT4EbtGo5W-1" source="qR8YceTMyiyLwritScN6-2">
          <mxGeometry relative="1" as="geometry">
            <mxPoint x="130" y="320" as="targetPoint" />
          </mxGeometry>
        </mxCell>
        <mxCell id="qR8YceTMyiyLwritScN6-5" style="edgeStyle=orthogonalEdgeStyle;rounded=0;orthogonalLoop=1;jettySize=auto;html=1;" edge="1" parent="C4vQ7SFBK7eT4EbtGo5W-1" source="qR8YceTMyiyLwritScN6-2">
          <mxGeometry relative="1" as="geometry">
            <mxPoint x="570" y="310" as="targetPoint" />
          </mxGeometry>
        </mxCell>
        <mxCell id="qR8YceTMyiyLwritScN6-2" value="" style="rhombus;whiteSpace=wrap;html=1;" vertex="1" parent="C4vQ7SFBK7eT4EbtGo5W-1">
          <mxGeometry x="267.5" y="170" width="165" height="110" as="geometry" />
        </mxCell>
        <mxCell id="qR8YceTMyiyLwritScN6-3" style="edgeStyle=orthogonalEdgeStyle;rounded=0;orthogonalLoop=1;jettySize=auto;html=1;exitX=0.5;exitY=1;exitDx=0;exitDy=0;" edge="1" parent="C4vQ7SFBK7eT4EbtGo5W-1" source="qR8YceTMyiyLwritScN6-2" target="qR8YceTMyiyLwritScN6-2">
          <mxGeometry relative="1" as="geometry" />
        </mxCell>
        <mxCell id="qR8YceTMyiyLwritScN6-8" style="edgeStyle=orthogonalEdgeStyle;rounded=0;orthogonalLoop=1;jettySize=auto;html=1;" edge="1" parent="C4vQ7SFBK7eT4EbtGo5W-1" source="qR8YceTMyiyLwritScN6-6">
          <mxGeometry relative="1" as="geometry">
            <mxPoint x="130" y="440" as="targetPoint" />
          </mxGeometry>
        </mxCell>
        <mxCell id="qR8YceTMyiyLwritScN6-6" value="" style="rounded=0;whiteSpace=wrap;html=1;" vertex="1" parent="C4vQ7SFBK7eT4EbtGo5W-1">
          <mxGeometry x="70" y="320" width="120" height="60" as="geometry" />
        </mxCell>
        <mxCell id="qR8YceTMyiyLwritScN6-9" style="edgeStyle=orthogonalEdgeStyle;rounded=0;orthogonalLoop=1;jettySize=auto;html=1;" edge="1" parent="C4vQ7SFBK7eT4EbtGo5W-1" source="qR8YceTMyiyLwritScN6-7">
          <mxGeometry relative="1" as="geometry">
            <mxPoint x="570" y="440" as="targetPoint" />
          </mxGeometry>
        </mxCell>
        <mxCell id="qR8YceTMyiyLwritScN6-7" value="" style="rounded=0;whiteSpace=wrap;html=1;" vertex="1" parent="C4vQ7SFBK7eT4EbtGo5W-1">
          <mxGeometry x="510" y="310" width="120" height="60" as="geometry" />
        </mxCell>
        <mxCell id="qR8YceTMyiyLwritScN6-12" style="edgeStyle=orthogonalEdgeStyle;rounded=0;orthogonalLoop=1;jettySize=auto;html=1;" edge="1" parent="C4vQ7SFBK7eT4EbtGo5W-1" source="qR8YceTMyiyLwritScN6-10">
          <mxGeometry relative="1" as="geometry">
            <mxPoint x="130" y="560" as="targetPoint" />
          </mxGeometry>
        </mxCell>
        <mxCell id="qR8YceTMyiyLwritScN6-10" value="&#xa;&lt;strong data-end=&quot;361&quot; data-start=&quot;339&quot;&gt;F = (C × 9/5) + 32&lt;/strong&gt; &#xa;&#xa;" style="rounded=0;whiteSpace=wrap;html=1;" vertex="1" parent="C4vQ7SFBK7eT4EbtGo5W-1">
          <mxGeometry x="70" y="440" width="120" height="60" as="geometry" />
        </mxCell>
        <mxCell id="qR8YceTMyiyLwritScN6-13" style="edgeStyle=orthogonalEdgeStyle;rounded=0;orthogonalLoop=1;jettySize=auto;html=1;" edge="1" parent="C4vQ7SFBK7eT4EbtGo5W-1" source="qR8YceTMyiyLwritScN6-11" target="qR8YceTMyiyLwritScN6-14">
          <mxGeometry relative="1" as="geometry">
            <mxPoint x="570" y="560" as="targetPoint" />
          </mxGeometry>
        </mxCell>
        <mxCell id="qR8YceTMyiyLwritScN6-11" value="" style="rounded=0;whiteSpace=wrap;html=1;" vertex="1" parent="C4vQ7SFBK7eT4EbtGo5W-1">
          <mxGeometry x="510" y="440" width="120" height="60" as="geometry" />
        </mxCell>
        <mxCell id="qR8YceTMyiyLwritScN6-18" style="edgeStyle=orthogonalEdgeStyle;rounded=0;orthogonalLoop=1;jettySize=auto;html=1;entryX=1;entryY=0.5;entryDx=0;entryDy=0;" edge="1" parent="C4vQ7SFBK7eT4EbtGo5W-1" source="qR8YceTMyiyLwritScN6-14" target="qR8YceTMyiyLwritScN6-16">
          <mxGeometry relative="1" as="geometry" />
        </mxCell>
        <mxCell id="qR8YceTMyiyLwritScN6-14" value="&#xa;Display Celsius result &#xa;&#xa;" style="rounded=0;whiteSpace=wrap;html=1;fontStyle=1" vertex="1" parent="C4vQ7SFBK7eT4EbtGo5W-1">
          <mxGeometry x="510" y="560" width="120" height="60" as="geometry" />
        </mxCell>
        <mxCell id="qR8YceTMyiyLwritScN6-17" style="edgeStyle=orthogonalEdgeStyle;rounded=0;orthogonalLoop=1;jettySize=auto;html=1;entryX=0;entryY=0.5;entryDx=0;entryDy=0;" edge="1" parent="C4vQ7SFBK7eT4EbtGo5W-1" source="qR8YceTMyiyLwritScN6-15" target="qR8YceTMyiyLwritScN6-16">
          <mxGeometry relative="1" as="geometry" />
        </mxCell>
        <mxCell id="qR8YceTMyiyLwritScN6-15" value="" style="rounded=0;whiteSpace=wrap;html=1;" vertex="1" parent="C4vQ7SFBK7eT4EbtGo5W-1">
          <mxGeometry x="70" y="560" width="120" height="60" as="geometry" />
        </mxCell>
        <mxCell id="qR8YceTMyiyLwritScN6-16" value="" style="ellipse;whiteSpace=wrap;html=1;" vertex="1" parent="C4vQ7SFBK7eT4EbtGo5W-1">
          <mxGeometry x="290" y="550" width="120" height="80" as="geometry" />
        </mxCell>
        <mxCell id="qR8YceTMyiyLwritScN6-19" value="Start" style="text;html=1;align=center;verticalAlign=middle;whiteSpace=wrap;rounded=0;fontStyle=1" vertex="1" parent="C4vQ7SFBK7eT4EbtGo5W-1">
          <mxGeometry x="320" y="55" width="60" height="30" as="geometry" />
        </mxCell>
        <mxCell id="qR8YceTMyiyLwritScN6-20" value="Conversion type?" style="text;whiteSpace=wrap;html=1;fontStyle=1" vertex="1" parent="C4vQ7SFBK7eT4EbtGo5W-1">
          <mxGeometry x="295" y="210" width="110" height="30" as="geometry" />
        </mxCell>
        <mxCell id="qR8YceTMyiyLwritScN6-21" value="C" style="text;html=1;align=center;verticalAlign=middle;whiteSpace=wrap;rounded=0;fontStyle=1" vertex="1" parent="C4vQ7SFBK7eT4EbtGo5W-1">
          <mxGeometry x="120" y="190" width="50" height="30" as="geometry" />
        </mxCell>
        <mxCell id="qR8YceTMyiyLwritScN6-22" value="F" style="text;html=1;align=center;verticalAlign=middle;whiteSpace=wrap;rounded=0;fontStyle=1" vertex="1" parent="C4vQ7SFBK7eT4EbtGo5W-1">
          <mxGeometry x="190" y="190" width="60" height="30" as="geometry" />
        </mxCell>
        <mxCell id="qR8YceTMyiyLwritScN6-23" value="" style="endArrow=classic;html=1;rounded=0;" edge="1" parent="C4vQ7SFBK7eT4EbtGo5W-1" source="qR8YceTMyiyLwritScN6-21" target="qR8YceTMyiyLwritScN6-22">
          <mxGeometry width="50" height="50" relative="1" as="geometry">
            <mxPoint x="390" y="310" as="sourcePoint" />
            <mxPoint x="440" y="260" as="targetPoint" />
          </mxGeometry>
        </mxCell>
        <mxCell id="qR8YceTMyiyLwritScN6-25" value="F" style="text;html=1;align=center;verticalAlign=middle;whiteSpace=wrap;rounded=0;fontStyle=1" vertex="1" parent="C4vQ7SFBK7eT4EbtGo5W-1">
          <mxGeometry x="432.5" y="190" width="60" height="30" as="geometry" />
        </mxCell>
        <mxCell id="qR8YceTMyiyLwritScN6-27" value="C" style="text;html=1;align=center;verticalAlign=middle;whiteSpace=wrap;rounded=0;fontStyle=1" vertex="1" parent="C4vQ7SFBK7eT4EbtGo5W-1">
          <mxGeometry x="520" y="190" width="60" height="30" as="geometry" />
        </mxCell>
        <mxCell id="qR8YceTMyiyLwritScN6-28" value="" style="endArrow=classic;html=1;rounded=0;exitX=1;exitY=0.5;exitDx=0;exitDy=0;entryX=0;entryY=0.5;entryDx=0;entryDy=0;" edge="1" parent="C4vQ7SFBK7eT4EbtGo5W-1" source="qR8YceTMyiyLwritScN6-25" target="qR8YceTMyiyLwritScN6-27">
          <mxGeometry width="50" height="50" relative="1" as="geometry">
            <mxPoint x="160" y="160" as="sourcePoint" />
            <mxPoint x="210" y="110" as="targetPoint" />
          </mxGeometry>
        </mxCell>
        <mxCell id="qR8YceTMyiyLwritScN6-29" value="Input Celsius temperature" style="text;whiteSpace=wrap;html=1;fontStyle=1" vertex="1" parent="C4vQ7SFBK7eT4EbtGo5W-1">
          <mxGeometry x="90" y="330" width="150" height="60" as="geometry" />
        </mxCell>
        <mxCell id="qR8YceTMyiyLwritScN6-30" value="Display Fahrenheit result" style="text;whiteSpace=wrap;html=1;fontStyle=1" vertex="1" parent="C4vQ7SFBK7eT4EbtGo5W-1">
          <mxGeometry x="80" y="570" width="130" height="40" as="geometry" />
        </mxCell>
        <mxCell id="qR8YceTMyiyLwritScN6-31" value="Input Fahrenheit temperature" style="text;whiteSpace=wrap;html=1;fontStyle=1" vertex="1" parent="C4vQ7SFBK7eT4EbtGo5W-1">
          <mxGeometry x="530" y="320" width="140" height="30" as="geometry" />
        </mxCell>
        <mxCell id="qR8YceTMyiyLwritScN6-32" value="C = (F − 32) × 5/9" style="text;whiteSpace=wrap;html=1;fontStyle=1" vertex="1" parent="C4vQ7SFBK7eT4EbtGo5W-1">
          <mxGeometry x="520" y="450" width="130" height="40" as="geometry" />
        </mxCell>
        <mxCell id="qR8YceTMyiyLwritScN6-33" value="End" style="text;html=1;align=center;verticalAlign=middle;whiteSpace=wrap;rounded=0;fontStyle=1" vertex="1" parent="C4vQ7SFBK7eT4EbtGo5W-1">
          <mxGeometry x="320" y="570" width="60" height="40" as="geometry" />
        </mxCell>
      </root>
    </mxGraphModel>
  </diagram>
</mxfile>
